<?xml version="1.0" encoding="utf-8"?>
<!-- Generator: Adobe Illustrator 17.0.0, SVG Export Plug-In . SVG Version: 6.00 Build 0)  -->
<!DOCTYPE svg PUBLIC "-//W3C//DTD SVG 1.1//EN" "http://www.w3.org/Graphics/SVG/1.1/DTD/svg11.dtd">
<svg version="1.1" id="Слой_1" xmlns="http://www.w3.org/2000/svg" xmlns:xlink="http://www.w3.org/1999/xlink" x="0px" y="0px"
	 width="1440px" height="800px" viewBox="0 0 1440 800" enable-background="new 0 0 1440 800" xml:space="preserve">
<path fill="none" stroke="#B2B2B2" stroke-miterlimit="10" d="M542.584-163.388"/>
<path fill="none" stroke="#B2B2B2" stroke-miterlimit="10" d="M610.123,798.945c68.558-99.092,154.853-252.541,158.072-415.826
	c2.87-145.551-40.108-279.681-113.685-384.455"/>
<path fill="none" stroke="#B2B2B2" stroke-miterlimit="10" d="M345,0.5"/>
<path fill="none" stroke="#B2B2B2" stroke-miterlimit="10" d="M833.805,800.5c87.18-116.717,138.783-261.53,138.783-418.397
	c0-136.12-44.012-274.375-111.576-382.603H848"/>
<path fill="none" stroke="#B2B2B2" stroke-miterlimit="10" d="M1042.574,801c70.954-126.423,111.996-268.51,111.996-420
	c0-136.38-29.939-265.669-84.207-381.5H1058"/>
<ellipse fill="#D6FDFF" cx="413.387" cy="387.252" rx="136.387" ry="133.252"/>
<circle fill="#B8EFF2" cx="766.55" cy="342.55" r="68.55"/>
<circle fill="#CAF9F9" cx="926.018" cy="127.018" r="59.018"/>
<circle fill="#C3F4F3" cx="1153.978" cy="358.978" r="61.521"/>
<circle fill="#B7EDEB" cx="685.481" cy="664.481" r="62.48"/>
<path fill="#D6FDFF" d="M1108.986,721.697c0,13.046-10.576,23.622-23.622,23.622s-26.78-10.576-26.78-23.622
	c0-13.046,13.734-23.622,26.78-23.622S1108.986,708.651,1108.986,721.697z"/>
<circle fill="#D6FDFF" cx="693.881" cy="63.372" r="22.628"/>
<text transform="matrix(1 0 0 1 351.1015 400.9595)" fill="#FFFFFF" font-family="'Roboto-Bold'" font-size="40">Design</text>
<text transform="matrix(1 0 0 1 718.509 352.5501)" fill="#FFFFFF" font-family="'Roboto-Regular'" font-size="24">Traveling</text>
<text transform="matrix(1 0 0 1 900.0778 134.6031)" fill="#FFFFFF" font-family="'Roboto-Regular'" font-size="22">Yoga</text>
<text transform="matrix(1 0 0 1 1116.0845 367.592)" fill="#FFFFFF" font-family="'Roboto-Regular'" font-size="22">Cooking</text>
<text transform="matrix(1 0 0 1 643.3229 673.5762)" fill="#FFFFFF" font-family="'Roboto-Regular'" font-size="22">Learning</text>
<circle fill="#A7E8E2" cx="953.747" cy="557.746" r="60.673"/>
<text transform="matrix(1 0 0 1 914.5756 566.5822)" fill="#FFFFFF" font-family="'Roboto-Regular'" font-size="22">Reading</text>
<path fill="none" stroke="#B2B2B2" stroke-miterlimit="10" d="M832.5,801"/>
</svg>
