<?xml version="1.0" encoding="utf-8"?>
<!-- Generator: Adobe Illustrator 17.0.0, SVG Export Plug-In . SVG Version: 6.00 Build 0)  -->
<!DOCTYPE svg PUBLIC "-//W3C//DTD SVG 1.1//EN" "http://www.w3.org/Graphics/SVG/1.1/DTD/svg11.dtd">
<svg version="1.1" id="Ğ¡Ğ»Ğ¾Ğ¹_1" xmlns="http://www.w3.org/2000/svg" xmlns:xlink="http://www.w3.org/1999/xlink" x="0px" y="0px"
	 width="410px" height="800px" viewBox="0 0 410 800" enable-background="new 0 0 410 800" xml:space="preserve">
<g>
	<polygon fill="#FFFFFF" points="177.388,27.642 143.725,5.417 144.275,4.583 177.405,26.456 212.737,4.575 213.263,5.425 	"/>
	<polygon fill="#FFFFFF" points="177.375,28.532 142.687,5.63 144.062,3.543 177.417,25.566 212.98,3.542 214.295,5.668 	"/>
</g>
<g>
	<circle fill="none" stroke="#FFFFFF" stroke-width="1.5" stroke-miterlimit="10" cx="53.553" cy="19" r="16"/>
	<text transform="matrix(1 0 0 1 49.553 24)" fill="#C9EEEE" font-family="'Roboto-Medium'" font-size="14">F</text>
</g>
<circle fill="none" stroke="#FFFFFF" stroke-width="1.5" stroke-miterlimit="10" cx="88.353" cy="19.4" r="16"/>
<text transform="matrix(1 0 0 1 80.553 24)" fill="#C9EEEE" font-family="'Roboto-Regular'" font-size="14">Be</text>
<line fill="none" stroke="#C9EEEE" stroke-miterlimit="10" x1="90.5" y1="15" x2="95.5" y2="15"/>
<polygon fill="#C9EEEE" stroke="#FFFFFF" stroke-width="1.5" stroke-miterlimit="10" points="178.388,68.642 144.725,46.417 
	145.275,45.583 178.405,67.456 213.737,45.575 214.263,46.425 "/>
<circle fill="none" stroke="#C9EEEE" stroke-width="1.5" stroke-miterlimit="10" cx="90.353" cy="55.4" r="16"/>
<text transform="matrix(0.9996 0.0298 -0.0298 0.9996 81.435 59.7569)" fill="#C9EEEE" font-family="'Roboto-Regular'" font-size="14">Be</text>
<line fill="none" stroke="#C9EEEE" stroke-miterlimit="10" x1="91.5" y1="51" x2="96.5" y2="51"/>
<circle fill="none" stroke="#C7ECEC" stroke-width="1.5" stroke-miterlimit="10" cx="54.553" cy="55" r="16"/>
<text transform="matrix(1 0 0 1 50.553 60)" fill="#C9EEEE" font-family="'Roboto-Medium'" font-size="14">F</text>
<circle fill="none" stroke="#C7ECEC" stroke-width="1.5" stroke-miterlimit="10" cx="19.029" cy="55.12" r="16"/>
<g>
	<rect x="11" y="50" fill="none" stroke="#C7ECEC" stroke-miterlimit="10" width="16" height="10"/>
	<polyline fill="none" stroke="#C7ECEC" stroke-miterlimit="10" points="27.053,50 19.353,53.602 11.349,50 	"/>
</g>
<circle fill="none" stroke="#FFFFFF" stroke-width="1.5" stroke-miterlimit="10" cx="19.029" cy="19.12" r="16"/>
<g>
	<rect x="11" y="14" fill="none" stroke="#C7ECEC" stroke-miterlimit="10" width="16" height="10"/>
	<polyline fill="none" stroke="#C7ECEC" stroke-miterlimit="10" points="27.053,14 19.353,17.602 11.349,14 	"/>
</g>
<circle fill="none" stroke="#C9EEEE" stroke-width="1.5" stroke-miterlimit="10" cx="125.553" cy="55" r="16"/>
<g>
	<g>
		<path fill="#C7ECEC" d="M126.65,26.5c-0.32,0-0.654-0.019-1-0.056c-2.914-0.319-5.442-2.782-5.548-2.887
			c-0.132-0.116-3.691-3.301-3.868-6.525c-0.017-0.294-0.025-0.581-0.025-0.851c0-1.791,0.337-2.968,1.031-3.599
			c0.379-0.345,0.854-0.505,1.374-0.453c1.297,0.123,3.733,2.056,3.733,3.565c0,0.127-0.017,0.251-0.049,0.369
			c-0.144,0.521-0.601,0.758-0.967,0.949c-0.518,0.27-0.698,0.4-0.698,0.807c0,0.132,0.022,0.288,0.066,0.462
			c0.286,1.139,2.458,3.433,3.875,3.94c0.055-0.118,0.112-0.26,0.144-0.339c0.209-0.519,0.426-1.056,0.94-1.221
			c0.162-0.052,0.341-0.078,0.531-0.078c0.949,0,1.995,0.635,2.4,0.907c0.425,0.286,1.818,1.307,1.906,2.442
			c0.046,0.6-0.202,1.174-0.698,1.619C129.105,26.173,128.018,26.5,126.65,26.5z M118.428,13.415c-0.123,0-0.224,0.04-0.317,0.125
			c-0.184,0.166-0.608,0.755-0.608,2.641c0,0.247,0.008,0.509,0.022,0.78c0.146,2.666,3.427,5.621,3.459,5.651
			c0.041,0.039,2.364,2.277,4.805,2.544c1.412,0.155,2.577-0.062,3.142-0.567c0.194-0.175,0.286-0.362,0.271-0.556
			c-0.019-0.248-0.447-0.868-1.338-1.467c-0.802-0.54-1.465-0.705-1.731-0.685c-0.07,0.12-0.166,0.358-0.217,0.484
			c-0.22,0.544-0.492,1.219-1.161,1.219l-0.177-0.019c-1.799-0.363-4.68-3.15-5.137-4.97c-0.069-0.274-0.104-0.536-0.104-0.776
			c0-1.229,0.907-1.701,1.395-1.955c0.121-0.063,0.304-0.159,0.347-0.207c-0.027-0.609-1.775-2.163-2.589-2.241L118.428,13.415z"/>
	</g>
</g>
<circle fill="none" stroke="#FFFFFF" stroke-width="1.5" stroke-miterlimit="10" cx="123.553" cy="19" r="16"/>
<g>
	<g>
		<path fill="none" stroke="#C9EEEE" stroke-miterlimit="10" d="M119.262,52.181c0-1.619,0.292-2.706,0.867-3.229
			c0.278-0.252,0.61-0.362,0.989-0.325c1.057,0.101,3.282,1.857,3.282,3.068c0,0.082-0.01,0.161-0.031,0.235
			c-0.086,0.311-0.392,0.47-0.716,0.639c-0.475,0.248-0.967,0.504-0.967,1.251l0,0c0,0.174,0.027,0.37,0.08,0.583
			c0.349,1.389,2.933,4.063,4.525,4.384c0.142,0.029,0.323-0.42,0.443-0.717c0.174-0.431,0.338-0.838,0.629-0.931
			c0.678-0.217,1.736,0.254,2.499,0.768c0.778,0.524,1.63,1.341,1.687,2.066c0.035,0.445-0.152,0.867-0.533,1.208
			c-0.743,0.666-2.113,0.945-3.758,0.765c-2.727-0.299-5.15-2.645-5.252-2.745c-0.14-0.124-3.555-3.187-3.72-6.196
			C119.27,52.719,119.262,52.442,119.262,52.181z M124.105,51.696c0-0.976-2.003-2.679-3.015-2.775
			c-0.293-0.028-0.55,0.056-0.763,0.25c-0.352,0.32-0.771,1.101-0.771,3.011c0,0.255,0.008,0.527,0.023,0.807
			c0.158,2.888,3.592,5.967,3.627,5.998c0.029,0.028,2.458,2.381,5.082,2.667c1.562,0.171,2.849-0.082,3.53-0.692
			c0.311-0.279,0.463-0.616,0.436-0.966c-0.039-0.503-0.665-1.244-1.557-1.844c-0.888-0.597-1.769-0.884-2.246-0.732
			c-0.159,0.051-0.318,0.445-0.446,0.761c-0.193,0.478-0.393,0.973-0.774,0.896c-1.594-0.322-4.347-2.988-4.751-4.601
			c-0.059-0.237-0.089-0.457-0.089-0.655l0,0c0-0.925,0.651-1.264,1.126-1.512c0.278-0.145,0.517-0.269,0.569-0.456
			C124.099,51.804,124.105,51.751,124.105,51.696z"/>
	</g>
</g>
<line fill="#FFFFFF" x1="27.43" y1="253.318" x2="27.43" y2="131.318"/>
<g>
	<g>
		<polygon fill="#94DADA" points="249.174,342.818 176.135,342.818 166.833,346.818 19.01,346.818 19.848,402.735 248.801,396.977 
					"/>
		<polyline fill="#FFFFFF" points="23.01,489.818 25.01,354.818 241.01,354.818 241.01,489.818 		"/>
		<polyline fill="#E3E3E3" points="22.51,489.811 24.517,354.318 241.51,354.318 241.51,490.318 		"/>
		<polyline fill="#FFFFFF" stroke="#E3E3E3" stroke-miterlimit="10" points="240.51,489.318 240.51,355.318 25.503,355.318 
			23.517,489.318 		"/>
		<polyline fill="#FFFFFF" points="28.348,482.818 28.348,361.818 244.302,361.818 244.302,482.818 		"/>
		<path fill="#FFFFFF" d="M244.801,483.318"/>
		<line fill="#FFFFFF" x1="27.848" y1="483.318" x2="27.848" y2="361.318"/>
		<polyline fill="#FFFFFF" stroke="#E3E3E3" stroke-miterlimit="10" points="243.801,482.318 243.801,362.318 28.848,362.318 
			28.848,482.318 		"/>
		<polyline fill="#FFFFFF" points="25.911,486.818 27.911,365.818 244.301,365.818 244.301,486.818 		"/>
		<polyline fill="#FFFFFF" stroke="#E3E3E3" stroke-miterlimit="10" points="25.402,487.318 27.419,365.318 244.801,365.318 
			244.801,487.318 		"/>
		<polyline fill="#FFFFFF" points="243.801,486.318 243.801,366.318 28.402,366.318 26.419,486.318 		"/>
		<path fill="#A8ECF0" d="M247.01,499.818l3-116.978c0-4.305-3.866-8.022-8.634-8.022h-68.352l-10.443-5H19.01l3,130H247.01z"/>
		<path fill="#FBFFFF" d="M106.011,434.422h0.05l3.099-9.263h3.156v12.57h-2.419v-8.582l-0.05-0.008l-2.982,8.59h-1.641
			l-2.983-8.607l-0.05,0.009v8.599h-2.419v-12.57h3.173L106.011,434.422z"/>
		<path fill="#FBFFFF" d="M117.585,433.809l0.1,0.518h0.05l1.715-5.94h2.602l-3.637,10.74c-0.255,0.667-0.6,1.23-1.036,1.688
			s-1.091,0.686-1.964,0.686c-0.204,0-0.394-0.017-0.567-0.052c-0.174-0.034-0.385-0.083-0.634-0.146l0.281-1.839
			c0.072,0.011,0.149,0.023,0.232,0.035c0.083,0.011,0.157,0.017,0.224,0.017c0.397,0,0.704-0.102,0.92-0.307
			c0.216-0.204,0.381-0.459,0.497-0.764l0.281-0.726l-3.182-9.333h2.603L117.585,433.809z"/>
		<path fill="#FBFFFF" d="M135.043,434.258h0.05l1.086-5.871h2.353l-2.278,9.341h-2.021l-1.666-5.387h-0.05l-1.665,5.387h-2.014
			l-2.278-9.341h2.354l1.102,5.845h0.05l1.674-5.845h1.615L135.043,434.258z"/>
		<path fill="#FBFFFF" d="M139.36,432.972c0-1.393,0.373-2.534,1.119-3.423c0.745-0.889,1.778-1.333,3.099-1.333
			c1.326,0,2.364,0.443,3.115,1.33s1.127,2.029,1.127,3.427v0.181c0,1.404-0.374,2.548-1.123,3.432
			c-0.748,0.884-1.782,1.325-3.103,1.325c-1.325,0-2.363-0.441-3.111-1.325c-0.748-0.883-1.123-2.027-1.123-3.432V432.972z
			 M141.771,433.153c0,0.852,0.144,1.536,0.432,2.05c0.287,0.515,0.751,0.773,1.392,0.773c0.624,0,1.081-0.259,1.371-0.777
			s0.436-1.2,0.436-2.046v-0.181c0-0.829-0.146-1.505-0.439-2.029s-0.754-0.786-1.384-0.786c-0.624,0-1.081,0.263-1.371,0.79
			c-0.29,0.526-0.436,1.201-0.436,2.024v0.182H141.771z"/>
		<path fill="#FBFFFF" d="M154.026,430.555l-0.887-0.026c-0.359,0-0.654,0.078-0.887,0.233c-0.231,0.155-0.408,0.374-0.53,0.656
			v6.311h-2.411v-9.341h2.246l0.107,1.381c0.21-0.489,0.481-0.87,0.816-1.144c0.334-0.273,0.719-0.41,1.155-0.41
			c0.121,0,0.233,0.01,0.336,0.03c0.102,0.02,0.205,0.044,0.311,0.073L154.026,430.555z"/>
		<path fill="#FBFFFF" d="M158.318,433.818h-0.613v3.911h-2.42v-13.468h2.42v7.641h0.538l2.146-3.514h2.8l-2.916,4.256l3.314,5.085
			h-2.784L158.318,433.818z"/>
		<path fill="#FBFFFF" d="M169.222,435.139c0-0.276-0.129-0.514-0.386-0.712s-0.733-0.373-1.429-0.522
			c-1.05-0.218-1.847-0.549-2.391-0.993c-0.544-0.443-0.816-1.044-0.816-1.804c0-0.8,0.326-1.482,0.978-2.046
			s1.52-0.846,2.602-0.846c1.133,0,2.04,0.282,2.723,0.846c0.682,0.564,1.009,1.266,0.981,2.106l-0.017,0.052h-2.337
			c0-0.374-0.115-0.679-0.348-0.915c-0.232-0.236-0.566-0.354-1.003-0.354c-0.387,0-0.693,0.101-0.919,0.302
			c-0.227,0.202-0.34,0.449-0.34,0.743c0,0.288,0.117,0.522,0.352,0.704c0.235,0.181,0.712,0.344,1.43,0.488
			c1.099,0.23,1.918,0.568,2.457,1.014c0.538,0.446,0.808,1.061,0.808,1.843c0,0.84-0.346,1.528-1.036,2.063
			s-1.602,0.803-2.734,0.803c-1.192,0-2.136-0.315-2.829-0.945s-1.023-1.348-0.99-2.154l0.017-0.052h2.212
			c0.017,0.5,0.174,0.863,0.473,1.088c0.298,0.224,0.688,0.336,1.168,0.336c0.447,0,0.789-0.093,1.023-0.28
			S169.222,435.461,169.222,435.139z"/>
	</g>
	<g>
		<polygon fill="#94DADA" points="249.174,342.818 176.135,342.818 166.833,346.818 19.01,346.818 19.848,402.735 248.801,396.977 
					"/>
		<polyline fill="#FFFFFF" points="23.01,489.818 25.01,354.818 241.01,354.818 241.01,489.818 		"/>
		<polyline fill="#E3E3E3" points="22.51,489.811 24.517,354.318 241.51,354.318 241.51,490.318 		"/>
		<polyline fill="#FFFFFF" stroke="#E3E3E3" stroke-miterlimit="10" points="240.51,489.318 240.51,355.318 25.503,355.318 
			23.517,489.318 		"/>
		<polyline fill="#FFFFFF" points="28.348,482.818 28.348,361.818 244.302,361.818 244.302,482.818 		"/>
		<path fill="#FFFFFF" d="M244.801,483.318"/>
		<line fill="#FFFFFF" x1="27.848" y1="483.318" x2="27.848" y2="361.318"/>
		<polyline fill="#FFFFFF" stroke="#E3E3E3" stroke-miterlimit="10" points="243.801,482.318 243.801,362.318 28.848,362.318 
			28.848,482.318 		"/>
		<polyline fill="#FFFFFF" points="25.911,486.818 27.911,365.818 244.301,365.818 244.301,486.818 		"/>
		<polyline fill="#FFFFFF" stroke="#E3E3E3" stroke-miterlimit="10" points="25.402,487.318 27.419,365.318 244.801,365.318 
			244.801,487.318 		"/>
		<polyline fill="#FFFFFF" points="243.801,486.318 243.801,366.318 28.402,366.318 26.419,486.318 		"/>
		<path fill="#A8ECF0" d="M247.01,499.818l3-116.978c0-4.305-3.866-8.022-8.634-8.022h-68.352l-10.443-5H19.01l3,130H247.01z"/>
		<path fill="#FBFFFF" d="M106.011,434.422h0.05l3.099-9.263h3.156v12.57h-2.419v-8.582l-0.05-0.008l-2.982,8.59h-1.641
			l-2.983-8.607l-0.05,0.009v8.599h-2.419v-12.57h3.173L106.011,434.422z"/>
		<path fill="#FBFFFF" d="M117.585,433.809l0.1,0.518h0.05l1.715-5.94h2.602l-3.637,10.74c-0.255,0.667-0.6,1.23-1.036,1.688
			s-1.091,0.686-1.964,0.686c-0.204,0-0.394-0.017-0.567-0.052c-0.174-0.034-0.385-0.083-0.634-0.146l0.281-1.839
			c0.072,0.011,0.149,0.023,0.232,0.035c0.083,0.011,0.157,0.017,0.224,0.017c0.397,0,0.704-0.102,0.92-0.307
			c0.216-0.204,0.381-0.459,0.497-0.764l0.281-0.726l-3.182-9.333h2.603L117.585,433.809z"/>
		<path fill="#FBFFFF" d="M135.043,434.258h0.05l1.086-5.871h2.353l-2.278,9.341h-2.021l-1.666-5.387h-0.05l-1.665,5.387h-2.014
			l-2.278-9.341h2.354l1.102,5.845h0.05l1.674-5.845h1.615L135.043,434.258z"/>
		<path fill="#FBFFFF" d="M139.36,432.972c0-1.393,0.373-2.534,1.119-3.423c0.745-0.889,1.778-1.333,3.099-1.333
			c1.326,0,2.364,0.443,3.115,1.33s1.127,2.029,1.127,3.427v0.181c0,1.404-0.374,2.548-1.123,3.432
			c-0.748,0.884-1.782,1.325-3.103,1.325c-1.325,0-2.363-0.441-3.111-1.325c-0.748-0.883-1.123-2.027-1.123-3.432V432.972z
			 M141.771,433.153c0,0.852,0.144,1.536,0.432,2.05c0.287,0.515,0.751,0.773,1.392,0.773c0.624,0,1.081-0.259,1.371-0.777
			s0.436-1.2,0.436-2.046v-0.181c0-0.829-0.146-1.505-0.439-2.029s-0.754-0.786-1.384-0.786c-0.624,0-1.081,0.263-1.371,0.79
			c-0.29,0.526-0.436,1.201-0.436,2.024v0.182H141.771z"/>
		<path fill="#FBFFFF" d="M154.026,430.555l-0.887-0.026c-0.359,0-0.654,0.078-0.887,0.233c-0.231,0.155-0.408,0.374-0.53,0.656
			v6.311h-2.411v-9.341h2.246l0.107,1.381c0.21-0.489,0.481-0.87,0.816-1.144c0.334-0.273,0.719-0.41,1.155-0.41
			c0.121,0,0.233,0.01,0.336,0.03c0.102,0.02,0.205,0.044,0.311,0.073L154.026,430.555z"/>
		<path fill="#FBFFFF" d="M158.318,433.818h-0.613v3.911h-2.42v-13.468h2.42v7.641h0.538l2.146-3.514h2.8l-2.916,4.256l3.314,5.085
			h-2.784L158.318,433.818z"/>
		<path fill="#FBFFFF" d="M169.222,435.139c0-0.276-0.129-0.514-0.386-0.712s-0.733-0.373-1.429-0.522
			c-1.05-0.218-1.847-0.549-2.391-0.993c-0.544-0.443-0.816-1.044-0.816-1.804c0-0.8,0.326-1.482,0.978-2.046
			s1.52-0.846,2.602-0.846c1.133,0,2.04,0.282,2.723,0.846c0.682,0.564,1.009,1.266,0.981,2.106l-0.017,0.052h-2.337
			c0-0.374-0.115-0.679-0.348-0.915c-0.232-0.236-0.566-0.354-1.003-0.354c-0.387,0-0.693,0.101-0.919,0.302
			c-0.227,0.202-0.34,0.449-0.34,0.743c0,0.288,0.117,0.522,0.352,0.704c0.235,0.181,0.712,0.344,1.43,0.488
			c1.099,0.23,1.918,0.568,2.457,1.014c0.538,0.446,0.808,1.061,0.808,1.843c0,0.84-0.346,1.528-1.036,2.063
			s-1.602,0.803-2.734,0.803c-1.192,0-2.136-0.315-2.829-0.945s-1.023-1.348-0.99-2.154l0.017-0.052h2.212
			c0.017,0.5,0.174,0.863,0.473,1.088c0.298,0.224,0.688,0.336,1.168,0.336c0.447,0,0.789-0.093,1.023-0.28
			S169.222,435.461,169.222,435.139z"/>
	</g>
	<g>
		<polygon fill="#94DADA" points="249.174,342.818 176.135,342.818 166.833,346.818 19.01,346.818 19.848,402.735 248.801,396.977 
					"/>
		<polyline fill="#FFFFFF" points="23.01,489.818 25.01,354.818 241.01,354.818 241.01,489.818 		"/>
		<polyline fill="#E3E3E3" points="22.51,489.811 24.517,354.318 241.51,354.318 241.51,490.318 		"/>
		<polyline fill="#FFFFFF" stroke="#E3E3E3" stroke-miterlimit="10" points="240.51,489.318 240.51,355.318 25.503,355.318 
			23.517,489.318 		"/>
		<polyline fill="#FFFFFF" points="28.348,482.818 28.348,361.818 244.302,361.818 244.302,482.818 		"/>
		<path fill="#FFFFFF" d="M244.801,483.318"/>
		<line fill="#FFFFFF" x1="27.848" y1="483.318" x2="27.848" y2="361.318"/>
		<polyline fill="#FFFFFF" stroke="#E3E3E3" stroke-miterlimit="10" points="243.801,482.318 243.801,362.318 28.848,362.318 
			28.848,482.318 		"/>
		<polyline fill="#FFFFFF" points="25.911,486.818 27.911,365.818 244.301,365.818 244.301,486.818 		"/>
		<polyline fill="#FFFFFF" stroke="#E3E3E3" stroke-miterlimit="10" points="25.402,487.318 27.419,365.318 244.801,365.318 
			244.801,487.318 		"/>
		<polyline fill="#FFFFFF" points="243.801,486.318 243.801,366.318 28.402,366.318 26.419,486.318 		"/>
		<path fill="#A8ECF0" d="M247.01,499.818l3-116.978c0-4.305-3.866-8.022-8.634-8.022h-68.352l-10.443-5H19.01l3,130H247.01z"/>
		<path fill="#FBFFFF" d="M106.011,434.422h0.05l3.099-9.263h3.156v12.57h-2.419v-8.582l-0.05-0.008l-2.982,8.59h-1.641
			l-2.983-8.607l-0.05,0.009v8.599h-2.419v-12.57h3.173L106.011,434.422z"/>
		<path fill="#FBFFFF" d="M117.585,433.809l0.1,0.518h0.05l1.715-5.94h2.602l-3.637,10.74c-0.255,0.667-0.6,1.23-1.036,1.688
			s-1.091,0.686-1.964,0.686c-0.204,0-0.394-0.017-0.567-0.052c-0.174-0.034-0.385-0.083-0.634-0.146l0.281-1.839
			c0.072,0.011,0.149,0.023,0.232,0.035c0.083,0.011,0.157,0.017,0.224,0.017c0.397,0,0.704-0.102,0.92-0.307
			c0.216-0.204,0.381-0.459,0.497-0.764l0.281-0.726l-3.182-9.333h2.603L117.585,433.809z"/>
		<path fill="#FBFFFF" d="M135.043,434.258h0.05l1.086-5.871h2.353l-2.278,9.341h-2.021l-1.666-5.387h-0.05l-1.665,5.387h-2.014
			l-2.278-9.341h2.354l1.102,5.845h0.05l1.674-5.845h1.615L135.043,434.258z"/>
		<path fill="#FBFFFF" d="M139.36,432.972c0-1.393,0.373-2.534,1.119-3.423c0.745-0.889,1.778-1.333,3.099-1.333
			c1.326,0,2.364,0.443,3.115,1.33s1.127,2.029,1.127,3.427v0.181c0,1.404-0.374,2.548-1.123,3.432
			c-0.748,0.884-1.782,1.325-3.103,1.325c-1.325,0-2.363-0.441-3.111-1.325c-0.748-0.883-1.123-2.027-1.123-3.432V432.972z
			 M141.771,433.153c0,0.852,0.144,1.536,0.432,2.05c0.287,0.515,0.751,0.773,1.392,0.773c0.624,0,1.081-0.259,1.371-0.777
			s0.436-1.2,0.436-2.046v-0.181c0-0.829-0.146-1.505-0.439-2.029s-0.754-0.786-1.384-0.786c-0.624,0-1.081,0.263-1.371,0.79
			c-0.29,0.526-0.436,1.201-0.436,2.024v0.182H141.771z"/>
		<path fill="#FBFFFF" d="M154.026,430.555l-0.887-0.026c-0.359,0-0.654,0.078-0.887,0.233c-0.231,0.155-0.408,0.374-0.53,0.656
			v6.311h-2.411v-9.341h2.246l0.107,1.381c0.21-0.489,0.481-0.87,0.816-1.144c0.334-0.273,0.719-0.41,1.155-0.41
			c0.121,0,0.233,0.01,0.336,0.03c0.102,0.02,0.205,0.044,0.311,0.073L154.026,430.555z"/>
		<path fill="#FBFFFF" d="M158.318,433.818h-0.613v3.911h-2.42v-13.468h2.42v7.641h0.538l2.146-3.514h2.8l-2.916,4.256l3.314,5.085
			h-2.784L158.318,433.818z"/>
		<path fill="#FBFFFF" d="M169.222,435.139c0-0.276-0.129-0.514-0.386-0.712s-0.733-0.373-1.429-0.522
			c-1.05-0.218-1.847-0.549-2.391-0.993c-0.544-0.443-0.816-1.044-0.816-1.804c0-0.8,0.326-1.482,0.978-2.046
			s1.52-0.846,2.602-0.846c1.133,0,2.04,0.282,2.723,0.846c0.682,0.564,1.009,1.266,0.981,2.106l-0.017,0.052h-2.337
			c0-0.374-0.115-0.679-0.348-0.915c-0.232-0.236-0.566-0.354-1.003-0.354c-0.387,0-0.693,0.101-0.919,0.302
			c-0.227,0.202-0.34,0.449-0.34,0.743c0,0.288,0.117,0.522,0.352,0.704c0.235,0.181,0.712,0.344,1.43,0.488
			c1.099,0.23,1.918,0.568,2.457,1.014c0.538,0.446,0.808,1.061,0.808,1.843c0,0.84-0.346,1.528-1.036,2.063
			s-1.602,0.803-2.734,0.803c-1.192,0-2.136-0.315-2.829-0.945s-1.023-1.348-0.99-2.154l0.017-0.052h2.212
			c0.017,0.5,0.174,0.863,0.473,1.088c0.298,0.224,0.688,0.336,1.168,0.336c0.447,0,0.789-0.093,1.023-0.28
			S169.222,435.461,169.222,435.139z"/>
	</g>
	<g>
		<polygon fill="#94DADA" points="249.174,342.818 176.135,342.818 166.833,346.818 19.01,346.818 19.848,402.735 248.801,396.977 
					"/>
		<polyline fill="#FFFFFF" points="23.01,489.818 25.01,354.818 241.01,354.818 241.01,489.818 		"/>
		<polyline fill="#E3E3E3" points="22.51,489.811 24.517,354.318 241.51,354.318 241.51,490.318 		"/>
		<polyline fill="#FFFFFF" stroke="#E3E3E3" stroke-miterlimit="10" points="240.51,489.318 240.51,355.318 25.503,355.318 
			23.517,489.318 		"/>
		<polyline fill="#FFFFFF" points="28.348,482.818 28.348,361.818 244.302,361.818 244.302,482.818 		"/>
		<path fill="#FFFFFF" d="M244.801,483.318"/>
		<line fill="#FFFFFF" x1="27.848" y1="483.318" x2="27.848" y2="361.318"/>
		<polyline fill="#FFFFFF" stroke="#E3E3E3" stroke-miterlimit="10" points="243.801,482.318 243.801,362.318 28.848,362.318 
			28.848,482.318 		"/>
		<polyline fill="#FFFFFF" points="25.911,486.818 27.911,365.818 244.301,365.818 244.301,486.818 		"/>
		<polyline fill="#FFFFFF" stroke="#E3E3E3" stroke-miterlimit="10" points="25.402,487.318 27.419,365.318 244.801,365.318 
			244.801,487.318 		"/>
		<polyline fill="#FFFFFF" points="243.801,486.318 243.801,366.318 28.402,366.318 26.419,486.318 		"/>
		<path fill="#A8ECF0" d="M247.01,499.818l3-116.978c0-4.305-3.866-8.022-8.634-8.022h-68.352l-10.443-5H19.01l3,130H247.01z"/>
		<path fill="#FBFFFF" d="M106.011,434.422h0.05l3.099-9.263h3.156v12.57h-2.419v-8.582l-0.05-0.008l-2.982,8.59h-1.641
			l-2.983-8.607l-0.05,0.009v8.599h-2.419v-12.57h3.173L106.011,434.422z"/>
		<path fill="#FBFFFF" d="M117.585,433.809l0.1,0.518h0.05l1.715-5.94h2.602l-3.637,10.74c-0.255,0.667-0.6,1.23-1.036,1.688
			s-1.091,0.686-1.964,0.686c-0.204,0-0.394-0.017-0.567-0.052c-0.174-0.034-0.385-0.083-0.634-0.146l0.281-1.839
			c0.072,0.011,0.149,0.023,0.232,0.035c0.083,0.011,0.157,0.017,0.224,0.017c0.397,0,0.704-0.102,0.92-0.307
			c0.216-0.204,0.381-0.459,0.497-0.764l0.281-0.726l-3.182-9.333h2.603L117.585,433.809z"/>
		<path fill="#FBFFFF" d="M135.043,434.258h0.05l1.086-5.871h2.353l-2.278,9.341h-2.021l-1.666-5.387h-0.05l-1.665,5.387h-2.014
			l-2.278-9.341h2.354l1.102,5.845h0.05l1.674-5.845h1.615L135.043,434.258z"/>
		<path fill="#FBFFFF" d="M139.36,432.972c0-1.393,0.373-2.534,1.119-3.423c0.745-0.889,1.778-1.333,3.099-1.333
			c1.326,0,2.364,0.443,3.115,1.33s1.127,2.029,1.127,3.427v0.181c0,1.404-0.374,2.548-1.123,3.432
			c-0.748,0.884-1.782,1.325-3.103,1.325c-1.325,0-2.363-0.441-3.111-1.325c-0.748-0.883-1.123-2.027-1.123-3.432V432.972z
			 M141.771,433.153c0,0.852,0.144,1.536,0.432,2.05c0.287,0.515,0.751,0.773,1.392,0.773c0.624,0,1.081-0.259,1.371-0.777
			s0.436-1.2,0.436-2.046v-0.181c0-0.829-0.146-1.505-0.439-2.029s-0.754-0.786-1.384-0.786c-0.624,0-1.081,0.263-1.371,0.79
			c-0.29,0.526-0.436,1.201-0.436,2.024v0.182H141.771z"/>
		<path fill="#FBFFFF" d="M154.026,430.555l-0.887-0.026c-0.359,0-0.654,0.078-0.887,0.233c-0.231,0.155-0.408,0.374-0.53,0.656
			v6.311h-2.411v-9.341h2.246l0.107,1.381c0.21-0.489,0.481-0.87,0.816-1.144c0.334-0.273,0.719-0.41,1.155-0.41
			c0.121,0,0.233,0.01,0.336,0.03c0.102,0.02,0.205,0.044,0.311,0.073L154.026,430.555z"/>
		<path fill="#FBFFFF" d="M158.318,433.818h-0.613v3.911h-2.42v-13.468h2.42v7.641h0.538l2.146-3.514h2.8l-2.916,4.256l3.314,5.085
			h-2.784L158.318,433.818z"/>
		<path fill="#FBFFFF" d="M169.222,435.139c0-0.276-0.129-0.514-0.386-0.712s-0.733-0.373-1.429-0.522
			c-1.05-0.218-1.847-0.549-2.391-0.993c-0.544-0.443-0.816-1.044-0.816-1.804c0-0.8,0.326-1.482,0.978-2.046
			s1.52-0.846,2.602-0.846c1.133,0,2.04,0.282,2.723,0.846c0.682,0.564,1.009,1.266,0.981,2.106l-0.017,0.052h-2.337
			c0-0.374-0.115-0.679-0.348-0.915c-0.232-0.236-0.566-0.354-1.003-0.354c-0.387,0-0.693,0.101-0.919,0.302
			c-0.227,0.202-0.34,0.449-0.34,0.743c0,0.288,0.117,0.522,0.352,0.704c0.235,0.181,0.712,0.344,1.43,0.488
			c1.099,0.23,1.918,0.568,2.457,1.014c0.538,0.446,0.808,1.061,0.808,1.843c0,0.84-0.346,1.528-1.036,2.063
			s-1.602,0.803-2.734,0.803c-1.192,0-2.136-0.315-2.829-0.945s-1.023-1.348-0.99-2.154l0.017-0.052h2.212
			c0.017,0.5,0.174,0.863,0.473,1.088c0.298,0.224,0.688,0.336,1.168,0.336c0.447,0,0.789-0.093,1.023-0.28
			S169.222,435.461,169.222,435.139z"/>
	</g>
</g>
<line fill="#FFFFFF" x1="27.848" y1="283.318" x2="27.848" y2="161.318"/>
<path fill="#FFFFFF" d="M244.801,283.318"/>
<g>
	<polygon fill="#94DADA" points="249.174,142.818 176.135,142.818 166.833,146.818 19.01,146.818 19.848,202.735 248.801,196.977 	
		"/>
	<polyline fill="#FFFFFF" points="23.01,289.818 25.01,154.818 241.01,154.818 241.01,289.818 	"/>
	<polyline fill="#E3E3E3" points="22.51,289.811 24.517,154.318 241.51,154.318 241.51,290.318 	"/>
	<polyline fill="#FFFFFF" stroke="#E3E3E3" stroke-miterlimit="10" points="240.51,289.318 240.51,155.318 25.503,155.318 
		23.517,289.318 	"/>
	<polyline fill="#FFFFFF" points="28.348,282.818 28.348,161.818 244.302,161.818 244.302,282.818 	"/>
	<path fill="#FFFFFF" d="M244.801,283.318"/>
	<line fill="#FFFFFF" x1="27.848" y1="283.318" x2="27.848" y2="161.318"/>
	<polyline fill="#FFFFFF" stroke="#E3E3E3" stroke-miterlimit="10" points="243.801,282.318 243.801,162.318 28.848,162.318 
		28.848,282.318 	"/>
	<polyline fill="#FFFFFF" points="25.911,286.818 27.911,165.818 244.301,165.818 244.301,286.818 	"/>
	<polyline fill="#FFFFFF" stroke="#E3E3E3" stroke-miterlimit="10" points="25.402,287.318 27.419,165.318 244.801,165.318 
		244.801,287.318 	"/>
	<polyline fill="#FFFFFF" points="243.801,286.318 243.801,166.318 28.402,166.318 26.419,286.318 	"/>
	<path fill="#A8ECF0" d="M247.01,299.818l3-116.978c0-4.305-3.866-8.022-8.634-8.022h-68.352l-10.443-5H19.01l3,130H247.01z"/>
	<path fill="#FBFFFF" d="M106.011,234.422h0.05l3.099-9.263h3.156v12.57h-2.419v-8.582l-0.05-0.008l-2.982,8.59h-1.641l-2.983-8.607
		l-0.05,0.009v8.599h-2.419v-12.57h3.173L106.011,234.422z"/>
	<path fill="#FBFFFF" d="M117.585,233.809l0.1,0.518h0.05l1.715-5.94h2.602l-3.637,10.74c-0.255,0.667-0.6,1.23-1.036,1.688
		s-1.091,0.686-1.964,0.686c-0.204,0-0.394-0.017-0.567-0.052c-0.174-0.034-0.385-0.083-0.634-0.146l0.281-1.839
		c0.072,0.011,0.149,0.023,0.232,0.035c0.083,0.011,0.157,0.017,0.224,0.017c0.397,0,0.704-0.102,0.92-0.307
		c0.216-0.204,0.381-0.459,0.497-0.764l0.281-0.726l-3.182-9.333h2.603L117.585,233.809z"/>
	<path fill="#FBFFFF" d="M135.043,234.258h0.05l1.086-5.871h2.353l-2.278,9.341h-2.021l-1.666-5.387h-0.05l-1.665,5.387h-2.014
		l-2.278-9.341h2.354l1.102,5.845h0.05l1.674-5.845h1.615L135.043,234.258z"/>
	<path fill="#FBFFFF" d="M139.36,232.972c0-1.393,0.373-2.534,1.119-3.423c0.745-0.889,1.778-1.333,3.099-1.333
		c1.326,0,2.364,0.443,3.115,1.33s1.127,2.029,1.127,3.427v0.181c0,1.404-0.374,2.548-1.123,3.432
		c-0.748,0.884-1.782,1.325-3.103,1.325c-1.325,0-2.363-0.441-3.111-1.325c-0.748-0.883-1.123-2.027-1.123-3.432V232.972z
		 M141.771,233.153c0,0.852,0.144,1.536,0.432,2.05c0.287,0.515,0.751,0.773,1.392,0.773c0.624,0,1.081-0.259,1.371-0.777
		s0.436-1.2,0.436-2.046v-0.181c0-0.829-0.146-1.505-0.439-2.029s-0.754-0.786-1.384-0.786c-0.624,0-1.081,0.263-1.371,0.79
		c-0.29,0.526-0.436,1.201-0.436,2.024v0.182H141.771z"/>
	<path fill="#FBFFFF" d="M154.026,230.555l-0.887-0.026c-0.359,0-0.654,0.078-0.887,0.233c-0.231,0.155-0.408,0.374-0.53,0.656
		v6.311h-2.411v-9.341h2.246l0.107,1.381c0.21-0.489,0.481-0.87,0.816-1.144c0.334-0.273,0.719-0.41,1.155-0.41
		c0.121,0,0.233,0.01,0.336,0.03c0.102,0.02,0.205,0.044,0.311,0.073L154.026,230.555z"/>
	<path fill="#FBFFFF" d="M158.318,233.818h-0.613v3.911h-2.42v-13.468h2.42v7.641h0.538l2.146-3.514h2.8l-2.916,4.256l3.314,5.085
		h-2.784L158.318,233.818z"/>
	<path fill="#FBFFFF" d="M169.222,235.139c0-0.276-0.129-0.514-0.386-0.712s-0.733-0.373-1.429-0.522
		c-1.05-0.218-1.847-0.549-2.391-0.993c-0.544-0.443-0.816-1.044-0.816-1.804c0-0.8,0.326-1.482,0.978-2.046s1.52-0.846,2.602-0.846
		c1.133,0,2.04,0.282,2.723,0.846c0.682,0.564,1.009,1.266,0.981,2.106l-0.017,0.052h-2.337c0-0.374-0.115-0.679-0.348-0.915
		c-0.232-0.236-0.566-0.354-1.003-0.354c-0.387,0-0.693,0.101-0.919,0.302c-0.227,0.202-0.34,0.449-0.34,0.743
		c0,0.288,0.117,0.522,0.352,0.704c0.235,0.181,0.712,0.344,1.43,0.488c1.099,0.23,1.918,0.568,2.457,1.014
		c0.538,0.446,0.808,1.061,0.808,1.843c0,0.84-0.346,1.528-1.036,2.063s-1.602,0.803-2.734,0.803c-1.192,0-2.136-0.315-2.829-0.945
		s-1.023-1.348-0.99-2.154l0.017-0.052h2.212c0.017,0.5,0.174,0.863,0.473,1.088c0.298,0.224,0.688,0.336,1.168,0.336
		c0.447,0,0.789-0.093,1.023-0.28S169.222,235.461,169.222,235.139z"/>
</g>
<g>
	<polygon fill="#94DADA" points="249.174,142.818 176.135,142.818 166.833,146.818 19.01,146.818 19.848,202.735 248.801,196.977 	
		"/>
	<polyline fill="#FFFFFF" points="23.01,289.818 25.01,154.818 241.01,154.818 241.01,289.818 	"/>
	<polyline fill="#E3E3E3" points="22.51,289.811 24.517,154.318 241.51,154.318 241.51,290.318 	"/>
	<polyline fill="#FFFFFF" stroke="#E3E3E3" stroke-miterlimit="10" points="240.51,289.318 240.51,155.318 25.503,155.318 
		23.517,289.318 	"/>
	<polyline fill="#FFFFFF" points="28.348,282.818 28.348,161.818 244.302,161.818 244.302,282.818 	"/>
	<path fill="#FFFFFF" d="M244.801,283.318"/>
	<line fill="#FFFFFF" x1="27.848" y1="283.318" x2="27.848" y2="161.318"/>
	<polyline fill="#FFFFFF" stroke="#E3E3E3" stroke-miterlimit="10" points="243.801,282.318 243.801,162.318 28.848,162.318 
		28.848,282.318 	"/>
	<polyline fill="#FFFFFF" points="25.911,286.818 27.911,165.818 244.301,165.818 244.301,286.818 	"/>
	<polyline fill="#FFFFFF" stroke="#E3E3E3" stroke-miterlimit="10" points="25.402,287.318 27.419,165.318 244.801,165.318 
		244.801,287.318 	"/>
	<polyline fill="#FFFFFF" points="243.801,286.318 243.801,166.318 28.402,166.318 26.419,286.318 	"/>
	<path fill="#A8ECF0" d="M247.01,299.818l3-116.978c0-4.305-3.866-8.022-8.634-8.022h-68.352l-10.443-5H19.01l3,130H247.01z"/>
	<path fill="#FBFFFF" d="M106.011,234.422h0.05l3.099-9.263h3.156v12.57h-2.419v-8.582l-0.05-0.008l-2.982,8.59h-1.641l-2.983-8.607
		l-0.05,0.009v8.599h-2.419v-12.57h3.173L106.011,234.422z"/>
	<path fill="#FBFFFF" d="M117.585,233.809l0.1,0.518h0.05l1.715-5.94h2.602l-3.637,10.74c-0.255,0.667-0.6,1.23-1.036,1.688
		s-1.091,0.686-1.964,0.686c-0.204,0-0.394-0.017-0.567-0.052c-0.174-0.034-0.385-0.083-0.634-0.146l0.281-1.839
		c0.072,0.011,0.149,0.023,0.232,0.035c0.083,0.011,0.157,0.017,0.224,0.017c0.397,0,0.704-0.102,0.92-0.307
		c0.216-0.204,0.381-0.459,0.497-0.764l0.281-0.726l-3.182-9.333h2.603L117.585,233.809z"/>
	<path fill="#FBFFFF" d="M135.043,234.258h0.05l1.086-5.871h2.353l-2.278,9.341h-2.021l-1.666-5.387h-0.05l-1.665,5.387h-2.014
		l-2.278-9.341h2.354l1.102,5.845h0.05l1.674-5.845h1.615L135.043,234.258z"/>
	<path fill="#FBFFFF" d="M139.36,232.972c0-1.393,0.373-2.534,1.119-3.423c0.745-0.889,1.778-1.333,3.099-1.333
		c1.326,0,2.364,0.443,3.115,1.33s1.127,2.029,1.127,3.427v0.181c0,1.404-0.374,2.548-1.123,3.432
		c-0.748,0.884-1.782,1.325-3.103,1.325c-1.325,0-2.363-0.441-3.111-1.325c-0.748-0.883-1.123-2.027-1.123-3.432V232.972z
		 M141.771,233.153c0,0.852,0.144,1.536,0.432,2.05c0.287,0.515,0.751,0.773,1.392,0.773c0.624,0,1.081-0.259,1.371-0.777
		s0.436-1.2,0.436-2.046v-0.181c0-0.829-0.146-1.505-0.439-2.029s-0.754-0.786-1.384-0.786c-0.624,0-1.081,0.263-1.371,0.79
		c-0.29,0.526-0.436,1.201-0.436,2.024v0.182H141.771z"/>
	<path fill="#FBFFFF" d="M154.026,230.555l-0.887-0.026c-0.359,0-0.654,0.078-0.887,0.233c-0.231,0.155-0.408,0.374-0.53,0.656
		v6.311h-2.411v-9.341h2.246l0.107,1.381c0.21-0.489,0.481-0.87,0.816-1.144c0.334-0.273,0.719-0.41,1.155-0.41
		c0.121,0,0.233,0.01,0.336,0.03c0.102,0.02,0.205,0.044,0.311,0.073L154.026,230.555z"/>
	<path fill="#FBFFFF" d="M158.318,233.818h-0.613v3.911h-2.42v-13.468h2.42v7.641h0.538l2.146-3.514h2.8l-2.916,4.256l3.314,5.085
		h-2.784L158.318,233.818z"/>
	<path fill="#FBFFFF" d="M169.222,235.139c0-0.276-0.129-0.514-0.386-0.712s-0.733-0.373-1.429-0.522
		c-1.05-0.218-1.847-0.549-2.391-0.993c-0.544-0.443-0.816-1.044-0.816-1.804c0-0.8,0.326-1.482,0.978-2.046s1.52-0.846,2.602-0.846
		c1.133,0,2.04,0.282,2.723,0.846c0.682,0.564,1.009,1.266,0.981,2.106l-0.017,0.052h-2.337c0-0.374-0.115-0.679-0.348-0.915
		c-0.232-0.236-0.566-0.354-1.003-0.354c-0.387,0-0.693,0.101-0.919,0.302c-0.227,0.202-0.34,0.449-0.34,0.743
		c0,0.288,0.117,0.522,0.352,0.704c0.235,0.181,0.712,0.344,1.43,0.488c1.099,0.23,1.918,0.568,2.457,1.014
		c0.538,0.446,0.808,1.061,0.808,1.843c0,0.84-0.346,1.528-1.036,2.063s-1.602,0.803-2.734,0.803c-1.192,0-2.136-0.315-2.829-0.945
		s-1.023-1.348-0.99-2.154l0.017-0.052h2.212c0.017,0.5,0.174,0.863,0.473,1.088c0.298,0.224,0.688,0.336,1.168,0.336
		c0.447,0,0.789-0.093,1.023-0.28S169.222,235.461,169.222,235.139z"/>
</g>
<g>
	<polygon fill="#94DADA" points="249.174,142.818 176.135,142.818 166.833,146.818 19.01,146.818 19.848,202.735 248.801,196.977 	
		"/>
	<polyline fill="#FFFFFF" points="23.01,289.818 25.01,154.818 241.01,154.818 241.01,289.818 	"/>
	<polyline fill="#E3E3E3" points="22.51,289.811 24.517,154.318 241.51,154.318 241.51,290.318 	"/>
	<polyline fill="#FFFFFF" stroke="#E3E3E3" stroke-miterlimit="10" points="240.51,289.318 240.51,155.318 25.503,155.318 
		23.517,289.318 	"/>
	<polyline fill="#FFFFFF" points="28.348,282.818 28.348,161.818 244.302,161.818 244.302,282.818 	"/>
	<path fill="#FFFFFF" d="M244.801,283.318"/>
	<line fill="#FFFFFF" x1="27.848" y1="283.318" x2="27.848" y2="161.318"/>
	<polyline fill="#FFFFFF" stroke="#E3E3E3" stroke-miterlimit="10" points="243.801,282.318 243.801,162.318 28.848,162.318 
		28.848,282.318 	"/>
	<polyline fill="#FFFFFF" points="25.911,286.818 27.911,165.818 244.301,165.818 244.301,286.818 	"/>
	<polyline fill="#FFFFFF" stroke="#E3E3E3" stroke-miterlimit="10" points="25.402,287.318 27.419,165.318 244.801,165.318 
		244.801,287.318 	"/>
	<polyline fill="#FFFFFF" points="243.801,286.318 243.801,166.318 28.402,166.318 26.419,286.318 	"/>
	<path fill="#A8ECF0" d="M247.01,299.818l3-116.978c0-4.305-3.866-8.022-8.634-8.022h-68.352l-10.443-5H19.01l3,130H247.01z"/>
	<path fill="#FBFFFF" d="M106.011,234.422h0.05l3.099-9.263h3.156v12.57h-2.419v-8.582l-0.05-0.008l-2.982,8.59h-1.641l-2.983-8.607
		l-0.05,0.009v8.599h-2.419v-12.57h3.173L106.011,234.422z"/>
	<path fill="#FBFFFF" d="M117.585,233.809l0.1,0.518h0.05l1.715-5.94h2.602l-3.637,10.74c-0.255,0.667-0.6,1.23-1.036,1.688
		s-1.091,0.686-1.964,0.686c-0.204,0-0.394-0.017-0.567-0.052c-0.174-0.034-0.385-0.083-0.634-0.146l0.281-1.839
		c0.072,0.011,0.149,0.023,0.232,0.035c0.083,0.011,0.157,0.017,0.224,0.017c0.397,0,0.704-0.102,0.92-0.307
		c0.216-0.204,0.381-0.459,0.497-0.764l0.281-0.726l-3.182-9.333h2.603L117.585,233.809z"/>
	<path fill="#FBFFFF" d="M135.043,234.258h0.05l1.086-5.871h2.353l-2.278,9.341h-2.021l-1.666-5.387h-0.05l-1.665,5.387h-2.014
		l-2.278-9.341h2.354l1.102,5.845h0.05l1.674-5.845h1.615L135.043,234.258z"/>
	<path fill="#FBFFFF" d="M139.36,232.972c0-1.393,0.373-2.534,1.119-3.423c0.745-0.889,1.778-1.333,3.099-1.333
		c1.326,0,2.364,0.443,3.115,1.33s1.127,2.029,1.127,3.427v0.181c0,1.404-0.374,2.548-1.123,3.432
		c-0.748,0.884-1.782,1.325-3.103,1.325c-1.325,0-2.363-0.441-3.111-1.325c-0.748-0.883-1.123-2.027-1.123-3.432V232.972z
		 M141.771,233.153c0,0.852,0.144,1.536,0.432,2.05c0.287,0.515,0.751,0.773,1.392,0.773c0.624,0,1.081-0.259,1.371-0.777
		s0.436-1.2,0.436-2.046v-0.181c0-0.829-0.146-1.505-0.439-2.029s-0.754-0.786-1.384-0.786c-0.624,0-1.081,0.263-1.371,0.79
		c-0.29,0.526-0.436,1.201-0.436,2.024v0.182H141.771z"/>
	<path fill="#FBFFFF" d="M154.026,230.555l-0.887-0.026c-0.359,0-0.654,0.078-0.887,0.233c-0.231,0.155-0.408,0.374-0.53,0.656
		v6.311h-2.411v-9.341h2.246l0.107,1.381c0.21-0.489,0.481-0.87,0.816-1.144c0.334-0.273,0.719-0.41,1.155-0.41
		c0.121,0,0.233,0.01,0.336,0.03c0.102,0.02,0.205,0.044,0.311,0.073L154.026,230.555z"/>
	<path fill="#FBFFFF" d="M158.318,233.818h-0.613v3.911h-2.42v-13.468h2.42v7.641h0.538l2.146-3.514h2.8l-2.916,4.256l3.314,5.085
		h-2.784L158.318,233.818z"/>
	<path fill="#FBFFFF" d="M169.222,235.139c0-0.276-0.129-0.514-0.386-0.712s-0.733-0.373-1.429-0.522
		c-1.05-0.218-1.847-0.549-2.391-0.993c-0.544-0.443-0.816-1.044-0.816-1.804c0-0.8,0.326-1.482,0.978-2.046s1.52-0.846,2.602-0.846
		c1.133,0,2.04,0.282,2.723,0.846c0.682,0.564,1.009,1.266,0.981,2.106l-0.017,0.052h-2.337c0-0.374-0.115-0.679-0.348-0.915
		c-0.232-0.236-0.566-0.354-1.003-0.354c-0.387,0-0.693,0.101-0.919,0.302c-0.227,0.202-0.34,0.449-0.34,0.743
		c0,0.288,0.117,0.522,0.352,0.704c0.235,0.181,0.712,0.344,1.43,0.488c1.099,0.23,1.918,0.568,2.457,1.014
		c0.538,0.446,0.808,1.061,0.808,1.843c0,0.84-0.346,1.528-1.036,2.063s-1.602,0.803-2.734,0.803c-1.192,0-2.136-0.315-2.829-0.945
		s-1.023-1.348-0.99-2.154l0.017-0.052h2.212c0.017,0.5,0.174,0.863,0.473,1.088c0.298,0.224,0.688,0.336,1.168,0.336
		c0.447,0,0.789-0.093,1.023-0.28S169.222,235.461,169.222,235.139z"/>
</g>
<polygon fill="#94DADA" points="249.174,142.818 176.135,142.818 166.833,146.818 19.01,146.818 19.848,202.735 248.801,196.977 "/>
<polyline fill="#FFFFFF" stroke="#E3E3E3" stroke-miterlimit="10" points="232.829,298.885 263.141,172.462 54.06,122.33 
	21.817,248.29 "/>
<polyline fill="#FFFFFF" points="28.348,282.818 28.348,161.818 244.302,161.818 244.302,282.818 "/>
<polyline fill="#FFFFFF" stroke="#E3E3E3" stroke-miterlimit="10" points="243.801,282.318 243.801,162.318 28.848,162.318 
	28.848,282.318 "/>
<polyline fill="#FFFFFF" points="25.911,286.818 27.911,165.818 244.301,165.818 244.301,286.818 "/>
<polyline fill="#FFFFFF" stroke="#E3E3E3" stroke-miterlimit="10" points="25.402,287.318 27.419,165.318 244.801,165.318 
	244.801,287.318 "/>
<polyline fill="#FFFFFF" points="243.801,286.318 243.801,166.318 28.402,166.318 26.419,286.318 "/>
<path fill="#A8ECF0" d="M247.01,299.818l3-116.978c0-4.305-3.866-8.022-8.634-8.022h-68.352l-10.443-5H19.01l3,130H247.01z"/>
<path fill="#FBFFFF" d="M106.011,234.422h0.05l3.099-9.263h3.156v12.57h-2.419v-8.582l-0.05-0.008l-2.982,8.59h-1.641l-2.983-8.607
	l-0.05,0.009v8.599h-2.419v-12.57h3.173L106.011,234.422z"/>
<path fill="#FBFFFF" d="M117.585,233.809l0.1,0.518h0.05l1.715-5.94h2.602l-3.637,10.74c-0.255,0.667-0.6,1.23-1.036,1.688
	s-1.091,0.686-1.964,0.686c-0.204,0-0.394-0.017-0.567-0.052c-0.174-0.034-0.385-0.083-0.634-0.146l0.281-1.839
	c0.072,0.011,0.149,0.023,0.232,0.035c0.083,0.011,0.157,0.017,0.224,0.017c0.397,0,0.704-0.102,0.92-0.307
	c0.216-0.204,0.381-0.459,0.497-0.764l0.281-0.726l-3.182-9.333h2.603L117.585,233.809z"/>
<path fill="#FBFFFF" d="M135.043,234.258h0.05l1.086-5.871h2.353l-2.278,9.341h-2.021l-1.666-5.387h-0.05l-1.665,5.387h-2.014
	l-2.278-9.341h2.354l1.102,5.845h0.05l1.674-5.845h1.615L135.043,234.258z"/>
<path fill="#FBFFFF" d="M139.36,232.972c0-1.393,0.373-2.534,1.119-3.423c0.745-0.889,1.778-1.333,3.099-1.333
	c1.326,0,2.364,0.443,3.115,1.33s1.127,2.029,1.127,3.427v0.181c0,1.404-0.374,2.548-1.123,3.432
	c-0.748,0.884-1.782,1.325-3.103,1.325c-1.325,0-2.363-0.441-3.111-1.325c-0.748-0.883-1.123-2.027-1.123-3.432V232.972z
	 M141.771,233.153c0,0.852,0.144,1.536,0.432,2.05c0.287,0.515,0.751,0.773,1.392,0.773c0.624,0,1.081-0.259,1.371-0.777
	s0.436-1.2,0.436-2.046v-0.181c0-0.829-0.146-1.505-0.439-2.029s-0.754-0.786-1.384-0.786c-0.624,0-1.081,0.263-1.371,0.79
	c-0.29,0.526-0.436,1.201-0.436,2.024v0.182H141.771z"/>
<path fill="#FBFFFF" d="M154.026,230.555l-0.887-0.026c-0.359,0-0.654,0.078-0.887,0.233c-0.231,0.155-0.408,0.374-0.53,0.656v6.311
	h-2.411v-9.341h2.246l0.107,1.381c0.21-0.489,0.481-0.87,0.816-1.144c0.334-0.273,0.719-0.41,1.155-0.41
	c0.121,0,0.233,0.01,0.336,0.03c0.102,0.02,0.205,0.044,0.311,0.073L154.026,230.555z"/>
<path fill="#FBFFFF" d="M158.318,233.818h-0.613v3.911h-2.42v-13.468h2.42v7.641h0.538l2.146-3.514h2.8l-2.916,4.256l3.314,5.085
	h-2.784L158.318,233.818z"/>
<path fill="#FBFFFF" d="M169.222,235.139c0-0.276-0.129-0.514-0.386-0.712s-0.733-0.373-1.429-0.522
	c-1.05-0.218-1.847-0.549-2.391-0.993c-0.544-0.443-0.816-1.044-0.816-1.804c0-0.8,0.326-1.482,0.978-2.046s1.52-0.846,2.602-0.846
	c1.133,0,2.04,0.282,2.723,0.846c0.682,0.564,1.009,1.266,0.981,2.106l-0.017,0.052h-2.337c0-0.374-0.115-0.679-0.348-0.915
	c-0.232-0.236-0.566-0.354-1.003-0.354c-0.387,0-0.693,0.101-0.919,0.302c-0.227,0.202-0.34,0.449-0.34,0.743
	c0,0.288,0.117,0.522,0.352,0.704c0.235,0.181,0.712,0.344,1.43,0.488c1.099,0.23,1.918,0.568,2.457,1.014
	c0.538,0.446,0.808,1.061,0.808,1.843c0,0.84-0.346,1.528-1.036,2.063s-1.602,0.803-2.734,0.803c-1.192,0-2.136-0.315-2.829-0.945
	s-1.023-1.348-0.99-2.154l0.017-0.052h2.212c0.017,0.5,0.174,0.863,0.473,1.088c0.298,0.224,0.688,0.336,1.168,0.336
	c0.447,0,0.789-0.093,1.023-0.28S169.222,235.461,169.222,235.139z"/>
</svg>
